<svg id="f62bd978-6288-4890-b56b-6dbc12fbb64d" data-name="b4e64cab-eafa-483c-91d0-77ed8a671178" xmlns="http://www.w3.org/2000/svg" xmlns:xlink="http://www.w3.org/1999/xlink" width="74" height="49.97" viewBox="0 0 74 49.97"><defs><linearGradient id="b27ded6c-c327-4334-804e-d09ecfc3e0ee" x1="50.29" y1="-707.02" x2="53.81" y2="-707.02" gradientTransform="matrix(1, 0, 0, -1, 0.1, -666.09)" gradientUnits="userSpaceOnUse"><stop offset="0" stop-color="#0079e3"/><stop offset="0.16" stop-color="#057de4"/><stop offset="0.34" stop-color="#1388e7"/><stop offset="0.54" stop-color="#2b9aec"/><stop offset="0.74" stop-color="#4cb3f4"/><stop offset="0.96" stop-color="#76d4fd"/><stop offset="1" stop-color="#80dbff"/></linearGradient><linearGradient id="f27df390-67d5-4020-a68b-8feeb16cf384" x1="51.32" y1="-704.27" x2="60.77" y2="-704.27" xlink:href="#b27ded6c-c327-4334-804e-d09ecfc3e0ee"/><linearGradient id="e661576f-a45e-4230-a834-81a98bf37faf" x1="54.77" y1="-708.84" x2="58.62" y2="-708.84" xlink:href="#b27ded6c-c327-4334-804e-d09ecfc3e0ee"/><linearGradient id="b70825cd-6139-4a7e-ab90-3f19be411c9d" x1="59.69" y1="-706.7" x2="62.79" y2="-706.7" xlink:href="#b27ded6c-c327-4334-804e-d09ecfc3e0ee"/><linearGradient id="f307760e-2553-4d8a-8e8f-f7e5875a26ff" x1="49.24" y1="-705.49" x2="63.82" y2="-705.49" xlink:href="#b27ded6c-c327-4334-804e-d09ecfc3e0ee"/><linearGradient id="b61be09b-5c0d-4d9c-aa1e-66f076749376" x1="11.09" y1="-707.02" x2="14.62" y2="-707.02" gradientTransform="matrix(1, 0, 0, -1, 0.1, -666.09)" gradientUnits="userSpaceOnUse"><stop offset="0" stop-color="#f79d1e"/><stop offset="0.22" stop-color="#f89f23"/><stop offset="0.49" stop-color="#f9a431"/><stop offset="0.77" stop-color="#fcae49"/><stop offset="1" stop-color="#ffb761"/></linearGradient><linearGradient id="e34c8ae8-49b8-4d1b-948e-9b84e307b6ab" x1="12.11" y1="-704.21" x2="21.55" y2="-704.21" xlink:href="#b61be09b-5c0d-4d9c-aa1e-66f076749376"/><linearGradient id="a19a7929-0de9-4e33-969b-cf2ac775fa41" x1="15.57" y1="-708.85" x2="19.42" y2="-708.85" xlink:href="#b61be09b-5c0d-4d9c-aa1e-66f076749376"/><linearGradient id="b856f26a-8968-44a9-9fc1-a3db10fdcbf6" x1="20.49" y1="-706.72" x2="23.59" y2="-706.72" xlink:href="#b61be09b-5c0d-4d9c-aa1e-66f076749376"/><linearGradient id="a630bc28-f020-4dcb-9eaa-c1a72edb1e89" x1="10.05" y1="-705.49" x2="24.63" y2="-705.49" xlink:href="#b61be09b-5c0d-4d9c-aa1e-66f076749376"/><linearGradient id="b28b6f0b-d905-4fc8-91c0-769a65fa68b3" x1="30.68" y1="-681.5" x2="34.21" y2="-681.5" gradientTransform="matrix(1, 0, 0, -1, 0.1, -666.09)" gradientUnits="userSpaceOnUse"><stop offset="0" stop-color="#00b796"/><stop offset="0.18" stop-color="#05ba99"/><stop offset="0.39" stop-color="#13c2a2"/><stop offset="0.62" stop-color="#2bd0b1"/><stop offset="0.86" stop-color="#4ce2c6"/><stop offset="1" stop-color="#62efd4"/></linearGradient><linearGradient id="ae7a2211-f099-40ff-82b2-83efee2f23c3" x1="31.72" y1="-678.65" x2="41.16" y2="-678.65" xlink:href="#b28b6f0b-d905-4fc8-91c0-769a65fa68b3"/><linearGradient id="ad633090-a154-4ae2-b76c-4bb6621cab51" x1="35.17" y1="-683.3" x2="39.02" y2="-683.3" xlink:href="#b28b6f0b-d905-4fc8-91c0-769a65fa68b3"/><linearGradient id="a468da7c-d877-4acf-b852-bda6fd2baf9b" x1="40.08" y1="-681.07" x2="43.2" y2="-681.07" xlink:href="#b28b6f0b-d905-4fc8-91c0-769a65fa68b3"/><linearGradient id="a5742531-011f-4dc2-a4d3-34e8ba65cc19" x1="29.65" y1="-679.94" x2="44.23" y2="-679.94" xlink:href="#b28b6f0b-d905-4fc8-91c0-769a65fa68b3"/></defs><path d="M51.82,27.09a13.92,13.92,0,0,0-1.64-4.94c-.31.21-.62.31-.93.52a13.89,13.89,0,0,1,1.54,4.82A8.11,8.11,0,0,1,51.82,27.09Z" fill="#8ad2ff"/><path d="M23.39,27.49a14,14,0,0,1,1.54-4.89c-.3-.1-.61-.3-.92-.41a16.63,16.63,0,0,0-1.65,4.94A4.2,4.2,0,0,0,23.39,27.49Z" fill="#8ad2ff"/><path d="M39.91,42.78a12.92,12.92,0,0,1-2.77.31,13.21,13.21,0,0,1-2.87-.31,3.63,3.63,0,0,1-.21,1,16,16,0,0,0,3.08.31,14.75,14.75,0,0,0,3-.31A5.21,5.21,0,0,1,39.91,42.78Z" fill="#8ad2ff"/><path d="M46.35,23.69H26.83a8,8,0,0,1-7.2-7.9A8.12,8.12,0,0,1,23,9.24,6.06,6.06,0,0,1,29.24,3.4a5.67,5.67,0,0,1,2,.41,9.36,9.36,0,0,1,13.08-2l0,0A9.08,9.08,0,0,1,48,8.1a8,8,0,0,1,5.86,9.59v0A7.43,7.43,0,0,1,46.35,23.69Zm-18.77-1H46.35A6.93,6.93,0,0,0,47.59,8.92l-.31-.1V8.51A8.46,8.46,0,0,0,38,1a8.93,8.93,0,0,0-6.17,3.69l-.2.41-.42-.2a5,5,0,0,0-6.65,2.33l0,0a4.75,4.75,0,0,0-.51,2.06v.3l-.2.21a7,7,0,0,0,3.58,12.83Z" fill="#03b998"/><path d="M66.18,49.86H47.3a8,8,0,0,1-8-7.9,8.1,8.1,0,0,1,6.17-7.8A9.31,9.31,0,0,1,56,26.24l.15,0A9.67,9.67,0,0,1,62.3,30a6.08,6.08,0,0,1,7.88,3.46l0,0a6.56,6.56,0,0,1,.41,2A8,8,0,0,1,66.71,50h0ZM54.79,27.09a8.33,8.33,0,0,0-8.31,7.48v.37l-.41.1A6.94,6.94,0,0,0,47.3,48.79H66.18A7,7,0,0,0,73,41.71a7,7,0,0,0-3.17-5.64l-.21-.21v-.31a5.19,5.19,0,0,0-5-5.13,5,5,0,0,0-2.15.51l-.41.21-.31-.42A8.35,8.35,0,0,0,54.79,27.09Z" fill="#00adff"/><path d="M26.83,49.86H7.3a8,8,0,0,1-7.3-8,7.76,7.76,0,0,1,3.38-6.46,6.08,6.08,0,0,1,6.26-5.85,6.17,6.17,0,0,1,1.95.41A9.38,9.38,0,0,1,24.7,28l.07.05a9.06,9.06,0,0,1,3.69,6.17,8,8,0,0,1,5.95,9.55,7.62,7.62,0,0,1-7.58,6.16Zm-18.68-1H26.83A6.83,6.83,0,0,0,33.69,42v-.18a6.92,6.92,0,0,0-5.64-6.77l-.41-.1v-.41a8.46,8.46,0,0,0-9.25-7.48,8.57,8.57,0,0,0-6,3.74l-.21.41L11.82,31a5.05,5.05,0,0,0-6.74,2.4l0,.07a4.58,4.58,0,0,0-.52,2v.31l-.2.21a6.77,6.77,0,0,0-3.2,5.78,6.94,6.94,0,0,0,6.77,7Z" fill="#ffae01"/><path d="M50.38,39.4A6.29,6.29,0,0,0,53.87,45l-3.09-8.22A11.27,11.27,0,0,0,50.38,39.4Z" fill="url(#b27ded6c-c327-4334-804e-d09ecfc3e0ee)"/><path d="M60.85,39.05a3.5,3.5,0,0,0-.52-1.75,3.63,3.63,0,0,1-.62-1.44,1.13,1.13,0,0,1,1-1.13h.11a6.17,6.17,0,0,0-8.72.29l-.11.12a6.1,6.1,0,0,0-.61.83h.41a12.78,12.78,0,0,1,1.64-.11c.1,0,.2.21.2.31a.23.23,0,0,1-.2.21,2.84,2.84,0,0,0-.72.1L55,43.25l1.33-4.11-1-2.67a2.59,2.59,0,0,1-.62-.1c-.1,0-.21-.21-.21-.31a.23.23,0,0,1,.21-.21s1,.11,1.64.11S58,35.85,58,35.85s.3.11.3.21-.11.31-.21.31H58a2.84,2.84,0,0,0-.72.1l2.45,6.82.62-2A9.7,9.7,0,0,0,60.85,39.05Z" fill="url(#f27df390-67d5-4020-a68b-8feeb16cf384)"/><path d="M56.74,39.9l-1.85,5.45a6,6,0,0,0,3.8-.13v-.11Z" fill="url(#e661576f-a45e-4230-a834-81a98bf37faf)"/><path d="M62.18,36.42V37a5.65,5.65,0,0,1-.51,2.26l-1.85,5.54A6.4,6.4,0,0,0,62.18,36.42Z" fill="url(#b70825cd-6139-4a7e-ab90-3f19be411c9d)"/><path d="M56.63,32.11a7.29,7.29,0,1,0,7.29,7.29A7.29,7.29,0,0,0,56.63,32.11Zm0,14.26a7,7,0,1,1,7-7h0A7,7,0,0,1,56.63,46.37Z" fill="url(#f307760e-2553-4d8a-8e8f-f7e5875a26ff)"/><path d="M11.18,39.4A6.27,6.27,0,0,0,14.68,45l-3-8.22A7.6,7.6,0,0,0,11.18,39.4Z" fill="url(#b61be09b-5c0d-4d9c-aa1e-66f076749376)"/><path d="M21.69,39.05a3.59,3.59,0,0,0-.51-1.75,3.47,3.47,0,0,1-.61-1.44,1.12,1.12,0,0,1,1-1.13h.1A6.17,6.17,0,0,0,13,35l-.1.11c-.21.21-.41.52-.62.72h.41c.62,0,1.65-.1,1.65-.1s.2.21.2.31a.22.22,0,0,1-.2.2,3.38,3.38,0,0,0-.72.11l2.21,6.78,1.44-4.11-1-2.67a2.18,2.18,0,0,1-.62-.11c-.1,0-.2-.2-.2-.3a.22.22,0,0,1,.2-.21s1,.1,1.65.1,1.64-.1,1.64-.1.21.21.21.31a.22.22,0,0,1-.21.2,3.59,3.59,0,0,0-.72.11l2.26,6.67L21,41A6.35,6.35,0,0,0,21.69,39.05Z" fill="url(#e34c8ae8-49b8-4d1b-948e-9b84e307b6ab)"/><path d="M17.58,39.9l-1.85,5.45a6,6,0,0,0,3.8-.1v-.11Z" fill="url(#a19a7929-0de9-4e33-969b-cf2ac775fa41)"/><path d="M22.88,36.42V37a5.5,5.5,0,0,1-.52,2.26l-1.7,5.59A6.3,6.3,0,0,0,22.88,36.42Z" fill="url(#b856f26a-8968-44a9-9fc1-a3db10fdcbf6)"/><path d="M17.44,32.11a7.29,7.29,0,1,0,7.33,7.29h0A7.33,7.33,0,0,0,17.44,32.11Zm0,14.26a7,7,0,1,1,7-7h0A7,7,0,0,1,17.44,46.37Z" fill="url(#a630bc28-f020-4dcb-9eaa-c1a72edb1e89)"/><path d="M30.78,13.85a6.28,6.28,0,0,0,3.49,5.67l-3-8.22A7.16,7.16,0,0,0,30.78,13.85Z" fill="url(#b28b6f0b-d905-4fc8-91c0-769a65fa68b3)"/><path d="M41.21,13.44a3.49,3.49,0,0,0-.51-1.75,3.63,3.63,0,0,1-.62-1.44,1.1,1.1,0,0,1,1-1.12h.1a6.15,6.15,0,0,0-8.71.29l-.1.11a6.09,6.09,0,0,0-.62.82h.41c.62,0,1.63-.1,1.63-.1s.21.21.21.31a.22.22,0,0,1-.21.2,3.4,3.4,0,0,0-.7.11l2.35,6.77,1.34-4-1-2.67a2.59,2.59,0,0,1-.62-.1c-.1,0-.2-.21-.2-.31a.22.22,0,0,1,.2-.21s1,.11,1.65.11,1.64-.11,1.64-.11.21.21.21.31a.23.23,0,0,1-.21.21,3,3,0,0,0-.72.1L40,17.64l.62-2.06A5.49,5.49,0,0,0,41.21,13.44Z" fill="url(#ae7a2211-f099-40ff-82b2-83efee2f23c3)"/><path d="M37.1,14.38l-1.85,5.44A4.94,4.94,0,0,0,37,20a7.18,7.18,0,0,0,2.06-.3v-.11Z" fill="url(#ad633090-a154-4ae2-b76c-4bb6621cab51)"/><path d="M42.48,10.76v.62A5.88,5.88,0,0,1,42,13.64l-1.85,5.54a6.16,6.16,0,0,0,2.38-8.39Z" fill="url(#a468da7c-d877-4acf-b852-bda6fd2baf9b)"/><path d="M37,6.56a7.29,7.29,0,1,0,7.26,7.32v0A7.32,7.32,0,0,0,37,6.56Zm0,14.16a7,7,0,1,1,7-7h0A7,7,0,0,1,37,20.72Z" fill="url(#a5742531-011f-4dc2-a4d3-34e8ba65cc19)"/></svg>