<svg id="a47c486b-8556-433a-b5bb-1649ed11df5b" data-name="f62bd978-6288-4890-b56b-6dbc12fbb64d" xmlns="http://www.w3.org/2000/svg" xmlns:xlink="http://www.w3.org/1999/xlink" width="78" height="52.69" viewBox="0 0 78 52.69"><defs><linearGradient id="f1cc260a-b4f4-4b12-bb65-4519935dedeb" x1="53" y1="1477.18" x2="56.7" y2="1477.18" gradientTransform="translate(0.1 -1434.09)" gradientUnits="userSpaceOnUse"><stop offset="0" stop-color="#0079e3"/><stop offset="0.16" stop-color="#057de4"/><stop offset="0.34" stop-color="#1388e7"/><stop offset="0.54" stop-color="#2b9aec"/><stop offset="0.74" stop-color="#4cb3f4"/><stop offset="0.96" stop-color="#76d4fd"/><stop offset="1" stop-color="#80dbff"/></linearGradient><linearGradient id="b03970b9-49d5-4dfd-97c9-992fba572adf" x1="54.08" y1="1474.32" x2="64.04" y2="1474.32" xlink:href="#f1cc260a-b4f4-4b12-bb65-4519935dedeb"/><linearGradient id="a4c2e453-5a2f-476c-8ead-3f7dd32707b9" x1="57.72" y1="1479.14" x2="61.77" y2="1479.14" xlink:href="#f1cc260a-b4f4-4b12-bb65-4519935dedeb"/><linearGradient id="b8edb1bb-dc3c-4305-bc38-e505bfe1c489" x1="62.9" y1="1476.89" x2="66.17" y2="1476.89" xlink:href="#f1cc260a-b4f4-4b12-bb65-4519935dedeb"/><linearGradient id="e7e550ae-8fc3-4753-b1cf-7f426c7bfd5a" x1="51.89" y1="1475.61" x2="67.25" y2="1475.61" xlink:href="#f1cc260a-b4f4-4b12-bb65-4519935dedeb"/><linearGradient id="ab716059-f0a8-4405-9be5-3d3348d9310a" x1="11.69" y1="1477.18" x2="15.41" y2="1477.18" gradientTransform="translate(0.1 -1434.09)" gradientUnits="userSpaceOnUse"><stop offset="0" stop-color="#f79d1e"/><stop offset="0.22" stop-color="#f89f23"/><stop offset="0.49" stop-color="#f9a431"/><stop offset="0.77" stop-color="#fcae49"/><stop offset="1" stop-color="#ffb761"/></linearGradient><linearGradient id="a05d82df-13ba-47eb-b4f7-208f9ef8d41c" x1="12.77" y1="1474.25" x2="22.71" y2="1474.25" xlink:href="#ab716059-f0a8-4405-9be5-3d3348d9310a"/><linearGradient id="e7c9ba29-7ffe-40f4-ac8b-2534fb092de6" x1="16.41" y1="1479.15" x2="20.47" y2="1479.15" xlink:href="#ab716059-f0a8-4405-9be5-3d3348d9310a"/><linearGradient id="bbc77fe0-cb19-4a6b-acb5-aa41b64b8bd0" x1="21.6" y1="1476.91" x2="24.86" y2="1476.91" xlink:href="#ab716059-f0a8-4405-9be5-3d3348d9310a"/><linearGradient id="bce1aad9-e337-4b20-84e1-2193d51ee737" x1="10.6" y1="1475.61" x2="25.96" y2="1475.61" xlink:href="#ab716059-f0a8-4405-9be5-3d3348d9310a"/><linearGradient id="a76264da-b3e8-44a1-9737-f5fe3b0dfa88" x1="32.33" y1="1450.33" x2="36.05" y2="1450.33" gradientTransform="translate(0.1 -1434.09)" gradientUnits="userSpaceOnUse"><stop offset="0" stop-color="#00b796"/><stop offset="0.18" stop-color="#05ba99"/><stop offset="0.39" stop-color="#13c2a2"/><stop offset="0.62" stop-color="#2bd0b1"/><stop offset="0.86" stop-color="#4ce2c6"/><stop offset="1" stop-color="#62efd4"/></linearGradient><linearGradient id="edfcb897-f218-481b-b882-441e134f52a1" x1="33.43" y1="1447.32" x2="43.38" y2="1447.32" xlink:href="#a76264da-b3e8-44a1-9737-f5fe3b0dfa88"/><linearGradient id="f55e3bb4-ee54-46f6-91ac-1218b7cc3f25" x1="37.06" y1="1452.22" x2="41.12" y2="1452.22" xlink:href="#a76264da-b3e8-44a1-9737-f5fe3b0dfa88"/><linearGradient id="af2f283f-7b9b-48aa-887c-c16ff2326230" x1="42.24" y1="1449.87" x2="45.53" y2="1449.87" xlink:href="#a76264da-b3e8-44a1-9737-f5fe3b0dfa88"/><linearGradient id="a586acf8-ee7d-4419-9a12-23d182f530d2" x1="31.25" y1="1448.69" x2="46.61" y2="1448.69" xlink:href="#a76264da-b3e8-44a1-9737-f5fe3b0dfa88"/></defs><path d="M54.6,28.55a14.52,14.52,0,0,0-1.73-5.2c-.32.22-.65.32-1,.54A14.69,14.69,0,0,1,53.52,29,10.06,10.06,0,0,1,54.6,28.55Z" fill="#8ad2ff"/><path d="M24.65,29a14.82,14.82,0,0,1,1.62-5.15c-.32-.11-.64-.32-1-.43a17.43,17.43,0,0,0-1.74,5.2A4.15,4.15,0,0,0,24.65,29Z" fill="#8ad2ff"/><path d="M42.05,45.08a13,13,0,0,1-2.92.33,14,14,0,0,1-3-.33,3.85,3.85,0,0,1-.22,1.06,16.79,16.79,0,0,0,3.24.32,16,16,0,0,0,3.17-.32A5.63,5.63,0,0,1,42.05,45.08Z" fill="#8ad2ff"/><path d="M48.84,25H28.27a8.44,8.44,0,0,1-7.59-8.33,8.59,8.59,0,0,1,3.56-6.9,6.37,6.37,0,0,1,6.57-6.15A5.89,5.89,0,0,1,32.92,4,9.86,9.86,0,0,1,46.7,1.91h0a9.58,9.58,0,0,1,3.88,6.63,8.44,8.44,0,0,1,6.17,10.11h0A7.82,7.82,0,0,1,48.84,25ZM29.06,23.91H48.84A7.3,7.3,0,0,0,50.15,9.4l-.33-.1V9A8.92,8.92,0,0,0,40,1.06,9.41,9.41,0,0,0,33.54,5l-.21.43-.44-.21a5.27,5.27,0,0,0-7,2.45h0a5,5,0,0,0-.54,2.17v.32l-.21.22A7.38,7.38,0,0,0,28.9,23.85Z" fill="#03b998"/><path d="M69.73,52.54H49.84a8.43,8.43,0,0,1-8.43-8.32A8.53,8.53,0,0,1,47.91,36,9.82,9.82,0,0,1,59,27.65h.17a10.23,10.23,0,0,1,6.49,4,6.4,6.4,0,0,1,8.29,3.63h0a7,7,0,0,1,.43,2.11,8.43,8.43,0,0,1-4.09,15.32h0Zm-12-24A8.78,8.78,0,0,0,49,36.43v.39l-.44.11a7.31,7.31,0,0,0,1.3,14.49H69.73A7.28,7.28,0,0,0,73.58,38l-.22-.22v-.33a5.47,5.47,0,0,0-5.27-5.4,5.26,5.26,0,0,0-2.27.54l-.43.22-.32-.44A8.82,8.82,0,0,0,57.73,28.55Z" fill="#00adff"/><path d="M28.27,52.54H7.69A8.42,8.42,0,0,1,0,44.11a8.17,8.17,0,0,1,3.56-6.8,6.42,6.42,0,0,1,6.6-6.17,6.53,6.53,0,0,1,2.05.43A9.89,9.89,0,0,1,26,29.51l.07,0A9.56,9.56,0,0,1,30,36.06a8.44,8.44,0,0,1,6.27,10.07,8,8,0,0,1-8,6.49Zm-19.68-1H28.27a7.2,7.2,0,0,0,7.23-7.17v-.25a7.29,7.29,0,0,0-5.94-7.13l-.44-.11V36.4a8.91,8.91,0,0,0-9.74-7.88,9,9,0,0,0-6.32,3.94l-.23.43-.38-.22a5.33,5.33,0,0,0-7.09,2.51v.09a4.72,4.72,0,0,0-.54,2.11v.33l-.22.22A7.13,7.13,0,0,0,1.22,44a7.31,7.31,0,0,0,7.14,7.37Z" fill="#ffae01"/><path d="M53.09,41.52a6.62,6.62,0,0,0,3.67,5.9l-3.25-8.66A11.74,11.74,0,0,0,53.09,41.52Z" fill="url(#f1cc260a-b4f4-4b12-bb65-4519935dedeb)"/><path d="M64.12,41.15a3.73,3.73,0,0,0-.55-1.84,3.68,3.68,0,0,1-.65-1.52,1.18,1.18,0,0,1,1-1.19h.12a6.5,6.5,0,0,0-9.19.31l-.12.12a6.81,6.81,0,0,0-.64.88h.43a12.47,12.47,0,0,1,1.73-.12c.1,0,.21.22.21.33a.25.25,0,0,1-.21.22,3.23,3.23,0,0,0-.76.1L58,45.58l1.4-4.33L58.3,38.43a2.38,2.38,0,0,1-.65-.1c-.11,0-.22-.22-.22-.33a.24.24,0,0,1,.22-.22s1.05.12,1.73.12,1.73-.12,1.73-.12.32.12.32.22-.12.33-.22.33h-.1a3.15,3.15,0,0,0-.75.1l2.58,7.19.65-2.11A10,10,0,0,0,64.12,41.15Z" fill="url(#b03970b9-49d5-4dfd-97c9-992fba572adf)"/><path d="M59.79,42.05l-1.95,5.74a6.3,6.3,0,0,0,4-.14v-.11Z" fill="url(#a4c2e453-5a2f-476c-8ead-3f7dd32707b9)"/><path d="M65.52,38.38V39A5.91,5.91,0,0,1,65,41.37l-2,5.84A6.75,6.75,0,0,0,65.52,38.38Z" fill="url(#b8edb1bb-dc3c-4305-bc38-e505bfe1c489)"/><path d="M59.67,33.84a7.68,7.68,0,1,0,7.68,7.68,7.68,7.68,0,0,0-7.68-7.68Zm0,15a7.38,7.38,0,1,1,7.38-7.38h0A7.39,7.39,0,0,1,59.67,48.87Z" fill="url(#e7e550ae-8fc3-4753-b1cf-7f426c7bfd5a)"/><path d="M11.78,41.52a6.61,6.61,0,0,0,3.69,5.9l-3.16-8.66A7.91,7.91,0,0,0,11.78,41.52Z" fill="url(#ab716059-f0a8-4405-9be5-3d3348d9310a)"/><path d="M22.85,41.15a3.74,3.74,0,0,0-.53-1.84,3.68,3.68,0,0,1-.65-1.52,1.19,1.19,0,0,1,1.06-1.19h.1a6.49,6.49,0,0,0-9.13.29l-.11.11c-.22.22-.43.55-.65.76h.43c.65,0,1.74-.11,1.74-.11s.21.23.21.33a.23.23,0,0,1-.21.21,3.26,3.26,0,0,0-.76.12l2.33,7.14,1.52-4.33-1.06-2.81a2.41,2.41,0,0,1-.65-.12c-.1,0-.21-.21-.21-.31a.23.23,0,0,1,.21-.23s1.05.11,1.74.11S20,37.65,20,37.65s.22.23.22.33a.23.23,0,0,1-.22.21,3.26,3.26,0,0,0-.76.12l2.38,7,.55-2.13A6.56,6.56,0,0,0,22.85,41.15Z" fill="url(#a05d82df-13ba-47eb-b4f7-208f9ef8d41c)"/><path d="M18.52,42.05l-1.95,5.74a6.39,6.39,0,0,0,4-.1v-.12Z" fill="url(#e7c9ba29-7ffe-40f4-ac8b-2534fb092de6)"/><path d="M24.11,38.38V39a5.72,5.72,0,0,1-.55,2.38l-1.79,5.89A6.64,6.64,0,0,0,24.11,38.38Z" fill="url(#bbc77fe0-cb19-4a6b-acb5-aa41b64b8bd0)"/><path d="M18.38,33.84a7.68,7.68,0,1,0,7.72,7.68h0A7.72,7.72,0,0,0,18.38,33.84Zm0,15a7.38,7.38,0,1,1,7.37-7.38h0A7.38,7.38,0,0,1,18.38,48.87Z" fill="url(#bce1aad9-e337-4b20-84e1-2193d51ee737)"/><path d="M32.43,14.6a6.62,6.62,0,0,0,3.68,6L33,11.91A7.52,7.52,0,0,0,32.43,14.6Z" fill="url(#a76264da-b3e8-44a1-9737-f5fe3b0dfa88)"/><path d="M43.42,14.17a3.78,3.78,0,0,0-.53-1.85,3.85,3.85,0,0,1-.66-1.51,1.16,1.16,0,0,1,1.06-1.18h.1a6.48,6.48,0,0,0-9.16.28l0,0-.1.12a7.84,7.84,0,0,0-.66.86h.44c.65,0,1.71-.1,1.71-.1s.23.22.23.32a.23.23,0,0,1-.23.21,4.63,4.63,0,0,0-.73.12l2.47,7.13,1.41-4.21-1-2.82a2.38,2.38,0,0,1-.65-.1c-.11,0-.21-.22-.21-.33a.23.23,0,0,1,.21-.22s1.05.12,1.74.12,1.72-.12,1.72-.12.23.22.23.33a.25.25,0,0,1-.23.22,3.15,3.15,0,0,0-.75.1l2.39,7,.65-2.17A5.73,5.73,0,0,0,43.42,14.17Z" fill="url(#edfcb897-f218-481b-b882-441e134f52a1)"/><path d="M39.09,15.16l-2,5.73a5.26,5.26,0,0,0,1.85.19,7.65,7.65,0,0,0,2.17-.32v-.11Z" fill="url(#f55e3bb4-ee54-46f6-91ac-1218b7cc3f25)"/><path d="M44.76,11.34V12a6.26,6.26,0,0,1-.5,2.38l-1.95,5.84a6.5,6.5,0,0,0,2.51-8.83h0Z" fill="url(#af2f283f-7b9b-48aa-887c-c16ff2326230)"/><path d="M39,6.92a7.68,7.68,0,1,0,7.65,7.71h0A7.71,7.71,0,0,0,39,6.92Zm0,14.92a7.38,7.38,0,1,1,7.37-7.38h0A7.37,7.37,0,0,1,39,21.84Z" fill="url(#a586acf8-ee7d-4419-9a12-23d182f530d2)"/></svg>