<svg id="edb66766-4809-4c7e-a58c-6285f6d26417" data-name="a47c486b-8556-433a-b5bb-1649ed11df5b" xmlns="http://www.w3.org/2000/svg" xmlns:xlink="http://www.w3.org/1999/xlink" width="82" height="55.42" viewBox="0 0 82 55.42"><defs><linearGradient id="bdbb55ca-d528-4885-9b6f-49cdfaa84ee1" x1="55.72" y1="-1425.38" x2="59.61" y2="-1425.38" gradientTransform="matrix(1, 0, 0, -1, 0.1, -1380.07)" gradientUnits="userSpaceOnUse"><stop offset="0" stop-color="#0079e3"/><stop offset="0.16" stop-color="#057de4"/><stop offset="0.34" stop-color="#1388e7"/><stop offset="0.54" stop-color="#2b9aec"/><stop offset="0.74" stop-color="#4cb3f4"/><stop offset="0.96" stop-color="#76d4fd"/><stop offset="1" stop-color="#80dbff"/></linearGradient><linearGradient id="a895851e-cf41-46d3-9628-c5e563101f55" x1="56.86" y1="-1422.38" x2="67.33" y2="-1422.38" xlink:href="#bdbb55ca-d528-4885-9b6f-49cdfaa84ee1"/><linearGradient id="eeaa761c-e51e-4b00-a85e-1dd8a6aa3241" x1="60.69" y1="-1427.44" x2="64.94" y2="-1427.44" xlink:href="#bdbb55ca-d528-4885-9b6f-49cdfaa84ee1"/><linearGradient id="bafdbf85-e7ae-4d8e-a5e7-87dc239e45c2" x1="66.13" y1="-1425.07" x2="69.57" y2="-1425.07" xlink:href="#bdbb55ca-d528-4885-9b6f-49cdfaa84ee1"/><linearGradient id="b271ee08-9546-47d5-a9c5-708124adef87" x1="54.56" y1="-1423.73" x2="70.71" y2="-1423.73" xlink:href="#bdbb55ca-d528-4885-9b6f-49cdfaa84ee1"/><linearGradient id="ac84bf64-8b71-4b62-96fc-2ce6729f7db4" x1="12.3" y1="-1425.38" x2="16.21" y2="-1425.38" gradientTransform="matrix(1, 0, 0, -1, 0.1, -1380.07)" gradientUnits="userSpaceOnUse"><stop offset="0" stop-color="#f79d1e"/><stop offset="0.22" stop-color="#f89f23"/><stop offset="0.49" stop-color="#f9a431"/><stop offset="0.77" stop-color="#fcae49"/><stop offset="1" stop-color="#ffb761"/></linearGradient><linearGradient id="ad9f1dbb-1225-4478-9935-34b6cfd69c14" x1="13.43" y1="-1422.3" x2="23.88" y2="-1422.3" xlink:href="#ac84bf64-8b71-4b62-96fc-2ce6729f7db4"/><linearGradient id="f1516db8-dd08-4799-9fcb-103c051d5d42" x1="17.26" y1="-1427.45" x2="21.53" y2="-1427.45" xlink:href="#ac84bf64-8b71-4b62-96fc-2ce6729f7db4"/><linearGradient id="f754a8eb-5e0c-4fdd-b158-089534e73938" x1="22.71" y1="-1425.1" x2="26.14" y2="-1425.1" xlink:href="#ac84bf64-8b71-4b62-96fc-2ce6729f7db4"/><linearGradient id="ec063403-8140-479d-a9d1-89191783c181" x1="11.15" y1="-1423.73" x2="27.3" y2="-1423.73" xlink:href="#ac84bf64-8b71-4b62-96fc-2ce6729f7db4"/><linearGradient id="b03a5a29-3d4f-4a8c-a731-2b954ebcab71" x1="33.99" y1="-1397.17" x2="37.9" y2="-1397.17" gradientTransform="matrix(1, 0, 0, -1, 0.1, -1380.07)" gradientUnits="userSpaceOnUse"><stop offset="0" stop-color="#00b796"/><stop offset="0.18" stop-color="#05ba99"/><stop offset="0.39" stop-color="#13c2a2"/><stop offset="0.62" stop-color="#2bd0b1"/><stop offset="0.86" stop-color="#4ce2c6"/><stop offset="1" stop-color="#62efd4"/></linearGradient><linearGradient id="f64f8852-2bae-4241-a3ca-0d08096da6ac" x1="35.15" y1="-1393.98" x2="45.61" y2="-1393.98" xlink:href="#b03a5a29-3d4f-4a8c-a731-2b954ebcab71"/><linearGradient id="e8f354c5-548e-4876-ab5d-04dae6b38c7e" x1="38.97" y1="-1399.14" x2="43.24" y2="-1399.14" xlink:href="#b03a5a29-3d4f-4a8c-a731-2b954ebcab71"/><linearGradient id="a3f84262-deec-4b6d-a780-74d8fd09cef9" x1="44.41" y1="-1396.67" x2="47.87" y2="-1396.67" xlink:href="#b03a5a29-3d4f-4a8c-a731-2b954ebcab71"/><linearGradient id="be8b133c-8ea4-4e29-88e3-9e8ad93d29c9" x1="32.86" y1="-1395.43" x2="49.01" y2="-1395.43" xlink:href="#b03a5a29-3d4f-4a8c-a731-2b954ebcab71"/></defs><path d="M57.4,30a15.12,15.12,0,0,0-1.82-5.46c-.33.23-.68.33-1,.57a15.61,15.61,0,0,1,1.74,5.37A11.26,11.26,0,0,1,57.4,30Z" fill="#8ad2ff"/><path d="M25.91,30.5a15.68,15.68,0,0,1,1.71-5.42c-.34-.11-.67-.33-1.05-.45a18,18,0,0,0-1.83,5.47A4.5,4.5,0,0,0,25.91,30.5Z" fill="#8ad2ff"/><path d="M44.21,47.4a13.83,13.83,0,0,1-3.07.35A14.64,14.64,0,0,1,38,47.4a3.92,3.92,0,0,1-.23,1.12,17.75,17.75,0,0,0,3.41.33,16.94,16.94,0,0,0,3.33-.33A6.12,6.12,0,0,1,44.21,47.4Z" fill="#8ad2ff"/><path d="M51.35,26.29H29.72a8.88,8.88,0,0,1-8-8.76,9,9,0,0,1,3.74-7.25,6.7,6.7,0,0,1,6.91-6.46,6.22,6.22,0,0,1,2.22.39A10.37,10.37,0,0,1,49.1,2h0a10.08,10.08,0,0,1,4.08,7,8.86,8.86,0,0,1,6.48,10.63h0A8.22,8.22,0,0,1,51.35,26.29Zm-20.8-1.14h20.8A7.68,7.68,0,0,0,52.72,9.89l-.34-.1V9.47A9.39,9.39,0,0,0,42.07,1.12h0a9.92,9.92,0,0,0-6.79,4.15L35,5.72l-.46-.22a5.53,5.53,0,0,0-7.36,2.57h0a5.34,5.34,0,0,0-.57,2.28v.34l-.22.23a7.76,7.76,0,0,0,3.95,14.16Z" fill="#03b998"/><path d="M73.31,55.25H52.4a8.88,8.88,0,0,1-8.87-8.75,9,9,0,0,1,6.84-8.64A10.32,10.32,0,0,1,62,29.08h.18A10.78,10.78,0,0,1,69,33.28a6.73,6.73,0,0,1,8.71,3.82h0a7.32,7.32,0,0,1,.46,2.22,8.86,8.86,0,0,1-4.3,16.1h0ZM60.69,30a9.25,9.25,0,0,0-9.18,8.3v.41l-.46.11a7.69,7.69,0,0,0,1.37,15.24H73.31a7.66,7.66,0,0,0,4-14.11l-.24-.23v-.35a5.75,5.75,0,0,0-5.54-5.68,5.63,5.63,0,0,0-2.38.57l-.45.23L68.41,34a9.29,9.29,0,0,0-7.72-4Z" fill="#00adff"/><path d="M29.72,55.25H8.08A8.86,8.86,0,0,1,0,46.38a8.6,8.6,0,0,1,3.74-7.15,6.75,6.75,0,0,1,6.94-6.48,6.67,6.67,0,0,1,2.16.45A10.39,10.39,0,0,1,27.33,31h.08a10.09,10.09,0,0,1,4.13,6.89,8.88,8.88,0,0,1,6.59,10.59,8.42,8.42,0,0,1-8.41,6.82ZM9,54.19H29.72a7.56,7.56,0,0,0,7.6-7.53h0v-.27a7.66,7.66,0,0,0-6.24-7.49l-.47-.12v-.5A9.36,9.36,0,0,0,20.37,30a9.47,9.47,0,0,0-6.64,4.15l-.24.45-.4-.23A5.59,5.59,0,0,0,5.64,37v.1a4.88,4.88,0,0,0-.57,2.22v.34l-.23.24a7.5,7.5,0,0,0-3.56,6.38A7.69,7.69,0,0,0,8.79,54Z" fill="#ffae01"/><path d="M55.81,43.66a7,7,0,0,0,3.86,6.2l-3.41-9.1A12.34,12.34,0,0,0,55.81,43.66Z" fill="url(#bdbb55ca-d528-4885-9b6f-49cdfaa84ee1)"/><path d="M67.41,43.27a3.89,3.89,0,0,0-.58-1.93,3.92,3.92,0,0,1-.68-1.6,1.24,1.24,0,0,1,1-1.25h.13a6.83,6.83,0,0,0-9.66.32h0l-.12.13a6.54,6.54,0,0,0-.67.92h.45a13.79,13.79,0,0,1,1.82-.12c.1,0,.22.23.22.35a.29.29,0,0,1-.22.23,3.58,3.58,0,0,0-.8.1L61,47.93l1.47-4.55-1.16-3a2.6,2.6,0,0,1-.68-.1c-.12,0-.23-.23-.23-.35a.25.25,0,0,1,.23-.23s1.1.12,1.82.12,1.82-.12,1.82-.12.33.12.33.23-.12.35-.23.35h-.1a3,3,0,0,0-.79.1L66.17,48l.68-2.22A10,10,0,0,0,67.41,43.27Z" fill="url(#a895851e-cf41-46d3-9628-c5e563101f55)"/><path d="M62.86,44.22l-2,6A6.57,6.57,0,0,0,65,50.1V50Z" fill="url(#eeaa761c-e51e-4b00-a85e-1dd8a6aa3241)"/><path d="M68.88,40.36V41a6.26,6.26,0,0,1-.54,2.49l-2.11,6.14A7.09,7.09,0,0,0,68.88,40.36Z" fill="url(#bafdbf85-e7ae-4d8e-a5e7-87dc239e45c2)"/><path d="M62.73,35.59a8.07,8.07,0,1,0,8.08,8.07,8.07,8.07,0,0,0-8.08-8.07Zm0,15.77a7.76,7.76,0,1,1,7.76-7.76h0a7.77,7.77,0,0,1-7.75,7.79h0Z" fill="url(#b271ee08-9546-47d5-a9c5-708124adef87)"/><path d="M12.38,43.66a7,7,0,0,0,3.88,6.2l-3.32-9.1A8.44,8.44,0,0,0,12.38,43.66Z" fill="url(#ac84bf64-8b71-4b62-96fc-2ce6729f7db4)"/><path d="M24,43.27a3.85,3.85,0,0,0-.55-1.93,3.94,3.94,0,0,1-.69-1.6,1.26,1.26,0,0,1,1.12-1.25H24a6.83,6.83,0,0,0-9.6.3l-.11.12c-.23.23-.45.58-.69.8h.46c.68,0,1.83-.12,1.83-.12s.22.24.22.35a.25.25,0,0,1-.22.22,3.11,3.11,0,0,0-.8.13l2.45,7.5,1.59-4.55-1.11-3a3.14,3.14,0,0,1-.68-.13c-.11,0-.22-.22-.22-.33a.24.24,0,0,1,.22-.24s1.1.12,1.83.12S21,39.59,21,39.59s.23.24.23.35a.25.25,0,0,1-.23.22,3.11,3.11,0,0,0-.8.13l2.5,7.35.58-2.23A7,7,0,0,0,24,43.27Z" fill="url(#ad9f1dbb-1225-4478-9935-34b6cfd69c14)"/><path d="M19.47,44.22l-2,6a6.74,6.74,0,0,0,4.21-.1V50Z" fill="url(#f1516db8-dd08-4799-9fcb-103c051d5d42)"/><path d="M25.35,40.36V41a6,6,0,0,1-.58,2.5L22.89,49.7A7,7,0,0,0,25.35,40.36Z" fill="url(#f754a8eb-5e0c-4fdd-b158-089534e73938)"/><path d="M19.32,35.59a8.07,8.07,0,1,0,8.12,8.07h0A8.11,8.11,0,0,0,19.32,35.59Zm0,15.77a7.76,7.76,0,1,1,7.75-7.77h0a7.76,7.76,0,0,1-7.73,7.79h0Z" fill="url(#ec063403-8140-479d-a9d1-89191783c181)"/><path d="M34.09,15.36A7,7,0,0,0,38,21.67l-3.27-9.14A8.1,8.1,0,0,0,34.09,15.36Z" fill="url(#b03a5a29-3d4f-4a8c-a731-2b954ebcab71)"/><path d="M45.65,14.91A4,4,0,0,0,45.09,13a4,4,0,0,1-.69-1.59,1.22,1.22,0,0,1,1.11-1.24h.11a6.82,6.82,0,0,0-9.63.3h0l-.11.12a8.7,8.7,0,0,0-.69.91h.46c.68,0,1.8-.11,1.8-.11s.24.23.24.34a.25.25,0,0,1-.24.22,4,4,0,0,0-.77.13l2.6,7.49,1.48-4.42-1-3A2.74,2.74,0,0,1,39,12c-.11,0-.22-.23-.22-.35a.25.25,0,0,1,.22-.23s1.11.12,1.83.12,1.81-.12,1.81-.12.24.23.24.35a.26.26,0,0,1-.24.23,3.56,3.56,0,0,0-.79.1l2.52,7.36.68-2.28A6.2,6.2,0,0,0,45.65,14.91Z" fill="url(#f64f8852-2bae-4241-a3ca-0d08096da6ac)"/><path d="M41.1,16,39,22a5.57,5.57,0,0,0,1.95.2,7.68,7.68,0,0,0,2.28-.34v-.11Z" fill="url(#e8f354c5-548e-4876-ab5d-04dae6b38c7e)"/><path d="M47.06,11.93v.7a6.52,6.52,0,0,1-.53,2.5l-2.05,6.14A6.84,6.84,0,0,0,47.12,12h0Z" fill="url(#a3f84262-deec-4b6d-a780-74d8fd09cef9)"/><path d="M41,7.28a8.08,8.08,0,1,0,8,8.11h0A8.11,8.11,0,0,0,41,7.28ZM41,23a7.76,7.76,0,1,1,7.75-7.77h0A7.75,7.75,0,0,1,41,23Z" fill="url(#be8b133c-8ea4-4e29-88e3-9e8ad93d29c9)"/></svg>