<svg id="b4e64cab-eafa-483c-91d0-77ed8a671178" data-name="bca66472-539e-47a2-908c-ae1a4085bf51" xmlns="http://www.w3.org/2000/svg" xmlns:xlink="http://www.w3.org/1999/xlink" width="72" height="48.63" viewBox="0 0 72 48.63"><defs><linearGradient id="f752d6e4-94fa-42ac-a258-84c66f58dcc9" x1="48.93" y1="755.9" x2="52.35" y2="755.9" gradientTransform="translate(0 -716.07)" gradientUnits="userSpaceOnUse"><stop offset="0" stop-color="#0079e3"/><stop offset="0.16" stop-color="#057de4"/><stop offset="0.34" stop-color="#1388e7"/><stop offset="0.54" stop-color="#2b9aec"/><stop offset="0.74" stop-color="#4cb3f4"/><stop offset="0.96" stop-color="#76d4fd"/><stop offset="1" stop-color="#80dbff"/></linearGradient><linearGradient id="ad48c9bd-9513-4df0-8837-e8194211dce3" x1="49.93" y1="753.25" x2="59.12" y2="753.25" xlink:href="#f752d6e4-94fa-42ac-a258-84c66f58dcc9"/><linearGradient id="b74c217c-b96b-4310-9453-05230802412d" x1="53.29" y1="757.68" x2="57.03" y2="757.68" xlink:href="#f752d6e4-94fa-42ac-a258-84c66f58dcc9"/><linearGradient id="e78259a3-6131-4bf9-a5fd-14a61d6bf7cc" x1="58.07" y1="755.6" x2="61.09" y2="755.6" xlink:href="#f752d6e4-94fa-42ac-a258-84c66f58dcc9"/><linearGradient id="a3e229a0-7c93-4814-8554-32002f3b928d" x1="47.92" y1="754.41" x2="62.1" y2="754.41" xlink:href="#f752d6e4-94fa-42ac-a258-84c66f58dcc9"/><linearGradient id="e92a0b41-9366-4562-b080-86fbe6d65006" x1="10.79" y1="755.9" x2="14.22" y2="755.9" gradientTransform="translate(0 -716.07)" gradientUnits="userSpaceOnUse"><stop offset="0" stop-color="#f79d1e"/><stop offset="0.22" stop-color="#f89f23"/><stop offset="0.49" stop-color="#f9a431"/><stop offset="0.77" stop-color="#fcae49"/><stop offset="1" stop-color="#ffb761"/></linearGradient><linearGradient id="f58d83c2-320e-4622-83a2-7750b80418d3" x1="11.78" y1="753.2" x2="20.96" y2="753.2" xlink:href="#e92a0b41-9366-4562-b080-86fbe6d65006"/><linearGradient id="f6c12e05-da50-490b-93fd-c9d07eed845e" x1="15.15" y1="757.68" x2="18.89" y2="757.68" xlink:href="#e92a0b41-9366-4562-b080-86fbe6d65006"/><linearGradient id="a3ccc871-dc17-4e6a-a847-a75cc1df944c" x1="19.93" y1="755.6" x2="22.95" y2="755.6" xlink:href="#e92a0b41-9366-4562-b080-86fbe6d65006"/><linearGradient id="e682bd41-19f7-47fd-bb1f-e9f87a180f2a" x1="9.78" y1="754.41" x2="23.96" y2="754.41" xlink:href="#e92a0b41-9366-4562-b080-86fbe6d65006"/><linearGradient id="b17f710f-827a-4864-938b-43cea44f7480" x1="29.85" y1="731.05" x2="33.28" y2="731.05" gradientTransform="translate(0 -716.07)" gradientUnits="userSpaceOnUse"><stop offset="0" stop-color="#00b796"/><stop offset="0.18" stop-color="#05ba99"/><stop offset="0.39" stop-color="#13c2a2"/><stop offset="0.62" stop-color="#2bd0b1"/><stop offset="0.86" stop-color="#4ce2c6"/><stop offset="1" stop-color="#62efd4"/></linearGradient><linearGradient id="e122d302-c678-41ef-9465-df3fc5cbfb96" x1="30.86" y1="728.3" x2="40.04" y2="728.3" xlink:href="#b17f710f-827a-4864-938b-43cea44f7480"/><linearGradient id="ad43b01e-c89a-4e9f-89d4-d9e5658ce932" x1="34.22" y1="732.79" x2="37.96" y2="732.79" xlink:href="#b17f710f-827a-4864-938b-43cea44f7480"/><linearGradient id="ec3d0a26-f208-46b8-a235-8c105c2979f1" x1="38.99" y1="730.65" x2="42.03" y2="730.65" xlink:href="#b17f710f-827a-4864-938b-43cea44f7480"/><linearGradient id="ba9ff5b8-45f7-441f-8706-dde84e4cc660" x1="28.85" y1="729.55" x2="43.03" y2="729.55" xlink:href="#b17f710f-827a-4864-938b-43cea44f7480"/></defs><path d="M50.32,26.36a13.61,13.61,0,0,0-1.6-4.8c-.3.2-.6.3-.9.5a13.6,13.6,0,0,1,1.5,4.69A8,8,0,0,1,50.32,26.36Z" transform="translate(0.1 0.01)" fill="#8ad2ff"/><path d="M22.66,26.75A13.46,13.46,0,0,1,24.16,22c-.3-.1-.6-.3-.9-.4a16,16,0,0,0-1.6,4.8A3.76,3.76,0,0,0,22.66,26.75Z" transform="translate(0.1 0.01)" fill="#8ad2ff"/><path d="M38.73,41.63a12.26,12.26,0,0,1-2.69.3,12.65,12.65,0,0,1-2.8-.3,3.55,3.55,0,0,1-.2,1,15.26,15.26,0,0,0,3,.3,14.11,14.11,0,0,0,2.89-.3A4.4,4.4,0,0,1,38.73,41.63Z" transform="translate(0.1 0.01)" fill="#8ad2ff"/><path d="M45,23.06h-19A7.79,7.79,0,0,1,19,15.37,7.88,7.88,0,0,1,22.26,9a5.91,5.91,0,0,1,6.09-5.69,5.85,5.85,0,0,1,1.9.4A9.1,9.1,0,0,1,43,1.8a8.83,8.83,0,0,1,3.59,6.09,7.73,7.73,0,0,1,5.69,9.38A7.23,7.23,0,0,1,45,23.06Zm-18.27-1H45a6.74,6.74,0,0,0,1.2-13.37l-.3-.1v-.3a8.24,8.24,0,0,0-9-7.29,8.65,8.65,0,0,0-6,3.59l-.2.4-.4-.2a4.85,4.85,0,0,0-6.49,2.3,4.54,4.54,0,0,0-.5,2v.3l-.2.2a6.79,6.79,0,0,0,3.49,12.48Z" transform="translate(0.1 0.01)" fill="#03b998"/><path d="M64.29,48.52H45.92a7.78,7.78,0,0,1-7.78-7.69,7.89,7.89,0,0,1,6-7.59,9.06,9.06,0,0,1,10.38-7.68,9.39,9.39,0,0,1,6,3.59,5.92,5.92,0,0,1,7.68,3.4,6.34,6.34,0,0,1,.4,2,7.76,7.76,0,0,1-3.79,14.08h0ZM53.21,26.36a8.13,8.13,0,0,0-8.09,7.28V34l-.4.1a6.75,6.75,0,0,0,1.2,13.38H64.29a6.77,6.77,0,0,0,6.59-6.89,6.85,6.85,0,0,0-3.09-5.49l-.2-.2v-.3a5.06,5.06,0,0,0-4.9-5,5,5,0,0,0-2.09.5l-.4.2-.3-.4A8.14,8.14,0,0,0,53.21,26.36Z" transform="translate(0.1 0.01)" fill="#00adff"/><path d="M26,48.52H7A7.82,7.82,0,0,1-.1,40.73a7.57,7.57,0,0,1,3.29-6.29,5.91,5.91,0,0,1,6.09-5.69,5.85,5.85,0,0,1,1.9.4A9.12,9.12,0,0,1,24,27.25a8.84,8.84,0,0,1,3.59,6,7.82,7.82,0,0,1,5.79,9.29,7.42,7.42,0,0,1-7.38,6Zm-18.17-1H26a6.65,6.65,0,0,0,6.68-6.79,6.73,6.73,0,0,0-5.49-6.59l-.4-.1v-.4a8.24,8.24,0,0,0-9-7.28A8.42,8.42,0,0,0,12,30l-.2.4-.4-.2a4.92,4.92,0,0,0-6.59,2.4,4.48,4.48,0,0,0-.5,2v.3l-.2.2A6.58,6.58,0,0,0,1,40.73a6.75,6.75,0,0,0,6.59,6.79Z" transform="translate(0.1 0.01)" fill="#ffae01"/><path d="M48.92,38.34a6.11,6.11,0,0,0,3.39,5.49l-3-8A10.86,10.86,0,0,0,48.92,38.34Z" transform="translate(0.1 0.01)" fill="url(#f752d6e4-94fa-42ac-a258-84c66f58dcc9)"/><path d="M59.1,38a3.37,3.37,0,0,0-.5-1.7,3.51,3.51,0,0,1-.6-1.4,1.09,1.09,0,0,1,1-1.1h.1a6,6,0,0,0-8.59.4,6.4,6.4,0,0,0-.59.8h.4a12.43,12.43,0,0,1,1.59-.1c.1,0,.2.2.2.3a.22.22,0,0,1-.2.2,3.2,3.2,0,0,0-.7.1l2.2,6.59,1.3-4-1-2.6a2.18,2.18,0,0,1-.6-.1c-.1,0-.2-.2-.2-.3a.22.22,0,0,1,.2-.2s1,.1,1.6.1,1.6-.1,1.6-.1.29.1.29.2-.1.3-.2.3h-.09a3.2,3.2,0,0,0-.7.1L58,42.13l.6-2A9.12,9.12,0,0,0,59.1,38Z" transform="translate(0.1 0.01)" fill="url(#ad48c9bd-9513-4df0-8837-e8194211dce3)"/><path d="M55.11,38.83l-1.8,5.3A5.83,5.83,0,0,0,57,44v-.1Z" transform="translate(0.1 0.01)" fill="url(#b74c217c-b96b-4310-9453-05230802412d)"/><path d="M60.4,35.44V36a5.45,5.45,0,0,1-.5,2.2l-1.8,5.39A6.24,6.24,0,0,0,60.4,35.44Z" transform="translate(0.1 0.01)" fill="url(#e78259a3-6131-4bf9-a5fd-14a61d6bf7cc)"/><path d="M55,31.25a7.09,7.09,0,1,0,7.09,7.09A7.11,7.11,0,0,0,55,31.25Zm0,13.87a6.79,6.79,0,1,1,6.79-6.78h0A6.79,6.79,0,0,1,55,45.12Z" transform="translate(0.1 0.01)" fill="url(#a3e229a0-7c93-4814-8554-32002f3b928d)"/><path d="M10.78,38.34a6.1,6.1,0,0,0,3.4,5.49l-2.9-8A7.42,7.42,0,0,0,10.78,38.34Z" transform="translate(0.1 0.01)" fill="url(#e92a0b41-9366-4562-b080-86fbe6d65006)"/><path d="M21,38a3.46,3.46,0,0,0-.49-1.7,3.51,3.51,0,0,1-.6-1.4,1.09,1.09,0,0,1,1-1.1H21a6,6,0,0,0-8.58.4c-.2.2-.4.5-.6.7h.4c.6,0,1.6-.1,1.6-.1s.2.2.2.3a.22.22,0,0,1-.2.2,3.2,3.2,0,0,0-.7.1L15.27,42l1.4-4-1-2.6a2.18,2.18,0,0,1-.6-.1c-.1,0-.2-.2-.2-.3a.22.22,0,0,1,.2-.2s1,.1,1.6.1,1.6-.1,1.6-.1.2.2.2.3a.22.22,0,0,1-.2.2,3.2,3.2,0,0,0-.7.1l2.2,6.49.6-2A6,6,0,0,0,21,38Z" transform="translate(0.1 0.01)" fill="url(#f58d83c2-320e-4622-83a2-7750b80418d3)"/><path d="M17,38.83l-1.8,5.3a5.86,5.86,0,0,0,3.7-.1v-.1Z" transform="translate(0.1 0.01)" fill="url(#f6c12e05-da50-490b-93fd-c9d07eed845e)"/><path d="M22.16,35.44V36a5.45,5.45,0,0,1-.5,2.2L20,43.63A6.12,6.12,0,0,0,22.16,35.44Z" transform="translate(0.1 0.01)" fill="url(#a3ccc871-dc17-4e6a-a847-a75cc1df944c)"/><path d="M16.87,31.25A7.09,7.09,0,1,0,24,38.34h0A7.12,7.12,0,0,0,16.87,31.25Zm0,13.87a6.79,6.79,0,1,1,6.79-6.78h0A6.85,6.85,0,0,1,16.87,45.12Z" transform="translate(0.1 0.01)" fill="url(#e682bd41-19f7-47fd-bb1f-e9f87a180f2a)"/><path d="M29.85,13.48A6.11,6.11,0,0,0,33.24,19l-2.89-8A7,7,0,0,0,29.85,13.48Z" transform="translate(0.1 0.01)" fill="url(#b17f710f-827a-4864-938b-43cea44f7480)"/><path d="M40,13.08a3.37,3.37,0,0,0-.5-1.7,3.51,3.51,0,0,1-.6-1.4,1.07,1.07,0,0,1,1-1.09H40a6,6,0,0,0-8.58.39,5.55,5.55,0,0,0-.6.8h.4c.6,0,1.59-.1,1.59-.1s.2.2.2.3a.22.22,0,0,1-.2.2,3.15,3.15,0,0,0-.69.1l2.29,6.59,1.3-3.89-1-2.6a2.18,2.18,0,0,1-.6-.1c-.1,0-.2-.2-.2-.3a.22.22,0,0,1,.2-.2s1,.1,1.6.1,1.6-.1,1.6-.1.2.2.2.3a.22.22,0,0,1-.2.2,3.2,3.2,0,0,0-.7.1l2.19,6.49.6-2A5.47,5.47,0,0,0,40,13.08Z" transform="translate(0.1 0.01)" fill="url(#e122d302-c678-41ef-9465-df3fc5cbfb96)"/><path d="M36,14l-1.8,5.29a5,5,0,0,0,1.7.2,6.93,6.93,0,0,0,2-.3v-.1Z" transform="translate(0.1 0.01)" fill="url(#ad43b01e-c89a-4e9f-89d4-d9e5658ce932)"/><path d="M41.23,10.48v.6a5.85,5.85,0,0,1-.5,2.2l-1.8,5.39a6,6,0,0,0,2.3-8.19Z" transform="translate(0.1 0.01)" fill="url(#ec3d0a26-f208-46b8-a235-8c105c2979f1)"/><path d="M35.94,6.39A7.09,7.09,0,1,0,43,13.48,7.12,7.12,0,0,0,35.94,6.39Zm0,13.78a6.8,6.8,0,0,1-6.79-6.79,6.79,6.79,0,1,1,13.58,0h0A6.8,6.8,0,0,1,35.94,20.17Z" transform="translate(0.1 0.01)" fill="url(#ba9ff5b8-45f7-441f-8706-dde84e4cc660)"/></svg>