<?xml version="1.0" encoding="utf-8"?>
<!-- Generator: Adobe Illustrator 24.1.0, SVG Export Plug-In . SVG Version: 6.00 Build 0)  -->
<svg version="1.1" id="bca66472-539e-47a2-908c-ae1a4085bf51"
	 xmlns="http://www.w3.org/2000/svg" xmlns:xlink="http://www.w3.org/1999/xlink" x="0px" y="0px" viewBox="0 0 72 48.6"
	 style="enable-background:new 0 0 72 48.6;" xml:space="preserve">
<style type="text/css">
	.st0{fill:#8AD2FF;}
	.st1{fill:#03B998;}
	.st2{fill:#00ADFF;}
	.st3{fill:#FFAE01;}
	.st4{fill:url(#SVGID_1_);}
	.st5{fill:url(#SVGID_2_);}
	.st6{fill:url(#SVGID_3_);}
	.st7{fill:url(#SVGID_4_);}
	.st8{fill:url(#SVGID_5_);}
	.st9{fill:url(#SVGID_6_);}
	.st10{fill:url(#SVGID_7_);}
	.st11{fill:url(#SVGID_8_);}
	.st12{fill:url(#SVGID_9_);}
	.st13{fill:url(#SVGID_10_);}
	.st14{fill:url(#SVGID_11_);}
	.st15{fill:url(#SVGID_12_);}
	.st16{fill:url(#SVGID_13_);}
	.st17{fill:url(#SVGID_14_);}
	.st18{fill:url(#SVGID_15_);}
</style>
<path class="st0" d="M50.4,26.4c-0.2-1.7-0.8-3.3-1.6-4.8c-0.3,0.2-0.6,0.3-0.9,0.5c0.8,1.5,1.3,3.1,1.5,4.7
	C49.8,26.6,50.1,26.5,50.4,26.4z"/>
<path class="st0" d="M22.7,26.8c0.2-1.7,0.7-3.3,1.5-4.8c-0.3-0.1-0.6-0.3-0.9-0.4c-0.8,1.5-1.3,3.1-1.6,4.8
	C22,26.6,22.4,26.7,22.7,26.8z"/>
<path class="st0" d="M38.8,41.7C37.9,41.9,37,42,36.1,42c-1,0-1.9-0.1-2.8-0.3c0,0.3-0.1,0.7-0.2,1c1,0.2,2,0.3,3,0.3
	c1,0,1.9-0.1,2.9-0.3C38.9,42.3,38.8,42,38.8,41.7z"/>
<path class="st1" d="M45.1,23.1h-19c-4-0.4-7.1-3.7-7.1-7.7c0-2.5,1.2-4.9,3.3-6.4c0.1-3.3,2.9-5.8,6.1-5.7c0.7,0,1.3,0.2,1.9,0.4
	c3-4.1,8.7-4.9,12.8-1.9c2,1.5,3.3,3.6,3.6,6.1c4.2,1,6.7,5.2,5.7,9.4C51.8,20.7,48.7,23.1,45.1,23.1L45.1,23.1z M26.8,22.1h18.3
	c3.7,0,6.7-3.1,6.7-6.8c0-3.2-2.3-6-5.5-6.6L46,8.6V8.3c-0.5-4.5-4.5-7.7-9-7.3c-2.4,0.3-4.6,1.6-6,3.6l-0.2,0.4l-0.4-0.2
	C28,3.6,25,4.7,23.9,7.1c-0.3,0.6-0.5,1.3-0.5,2v0.3l-0.2,0.2c-1.9,1.2-3.1,3.4-3.1,5.7c0,3.7,2.9,6.7,6.6,6.8H26.8z"/>
<path class="st2" d="M64.4,48.6H46c-4.3,0-7.8-3.5-7.8-7.7c0-3.6,2.5-6.7,6-7.6c0.7-5,5.4-8.5,10.4-7.7c2.4,0.4,4.6,1.7,6,3.6
	c3-1.2,6.5,0.3,7.7,3.4c0.2,0.6,0.4,1.3,0.4,2c3.5,2.4,4.4,7.3,1.9,10.8c-1.3,1.9-3.4,3.1-5.7,3.3l0,0L64.4,48.6z M53.3,26.4
	c-4.2,0-7.7,3.2-8.1,7.3v0.4l-0.4,0.1c-3.7,0.7-6.1,4.2-5.4,7.9c0.6,3.2,3.4,5.5,6.6,5.5h18.4c3.7-0.1,6.7-3.2,6.6-6.9
	c-0.1-2.2-1.2-4.3-3.1-5.5L67.7,35v-0.3c0-2.7-2.2-4.9-4.9-5c-0.7,0-1.5,0.2-2.1,0.5l-0.4,0.2L60,30C58.5,27.8,56,26.4,53.3,26.4z"
	/>
<path class="st3" d="M26,48.6h-19c-4-0.4-7.1-3.7-7.1-7.8c0-2.5,1.2-4.9,3.3-6.3c0.1-3.3,2.9-5.8,6.1-5.7c0.7,0,1.3,0.2,1.9,0.4
	c3-4.1,8.8-4.9,12.8-1.9c2,1.5,3.3,3.6,3.6,6c4.2,1,6.7,5.2,5.8,9.3C32.8,46.1,29.6,48.6,26,48.6L26,48.6z M7.8,47.6H26
	c3.7,0,6.8-3,6.7-6.8c0-3.2-2.3-6-5.5-6.6l-0.4-0.1v-0.4c-0.5-4.5-4.5-7.7-9-7.3C15.5,26.7,13.4,28,12,30l-0.2,0.4l-0.4-0.2
	C8.9,29,6,30.1,4.8,32.6c-0.3,0.6-0.5,1.3-0.5,2v0.3l-0.2,0.2c-2,1.2-3.1,3.4-3.1,5.7c0,3.7,2.9,6.7,6.6,6.8L7.8,47.6z"/>
<linearGradient id="SVGID_1_" gradientUnits="userSpaceOnUse" x1="49.0094" y1="11.9933" x2="52.4428" y2="11.9933" gradientTransform="matrix(1 0 0 -1 0 51.9291)">
	<stop  offset="0" style="stop-color:#0079E3"/>
	<stop  offset="0.16" style="stop-color:#057DE4"/>
	<stop  offset="0.34" style="stop-color:#1388E7"/>
	<stop  offset="0.54" style="stop-color:#2B9AEC"/>
	<stop  offset="0.74" style="stop-color:#4CB3F4"/>
	<stop  offset="0.96" style="stop-color:#76D4FD"/>
	<stop  offset="1" style="stop-color:#80DBFF"/>
</linearGradient>
<path class="st4" d="M49,38.4c0,2.3,1.3,4.5,3.4,5.5l-3-8C49.2,36.7,49,37.6,49,38.4z"/>
<linearGradient id="SVGID_2_" gradientUnits="userSpaceOnUse" x1="50.0165" y1="14.7252" x2="59.2189" y2="14.7252" gradientTransform="matrix(1 0 0 -1 0 51.9291)">
	<stop  offset="0" style="stop-color:#0079E3"/>
	<stop  offset="0.16" style="stop-color:#057DE4"/>
	<stop  offset="0.34" style="stop-color:#1388E7"/>
	<stop  offset="0.54" style="stop-color:#2B9AEC"/>
	<stop  offset="0.74" style="stop-color:#4CB3F4"/>
	<stop  offset="0.96" style="stop-color:#76D4FD"/>
	<stop  offset="1" style="stop-color:#80DBFF"/>
</linearGradient>
<path class="st5" d="M59.2,38.1c0-0.6-0.2-1.2-0.5-1.7c-0.3-0.4-0.5-0.9-0.6-1.4c0-0.6,0.4-1,1-1.1h0.1c-2.5-2.3-6.3-2.1-8.6,0.4
	c-0.2,0.2-0.4,0.5-0.6,0.8h0.4C51,35,52,35,52,35c0.1,0,0.2,0.2,0.2,0.3c0,0.1-0.1,0.2-0.2,0.2c0,0-0.3,0-0.7,0.1l2.2,6.6l1.3-4
	l-1-2.6c-0.3,0-0.6-0.1-0.6-0.1c-0.1,0-0.2-0.2-0.2-0.3c0-0.1,0.1-0.2,0.2-0.2c0,0,1,0.1,1.6,0.1c0.6,0,1.6-0.1,1.6-0.1
	c0.1,0,0.3,0.1,0.3,0.2c0,0.1-0.1,0.3-0.2,0.3c0,0-0.1,0-0.1,0c0,0-0.3,0-0.7,0.1l2.4,6.6l0.6-2C59,39.4,59.1,38.8,59.2,38.1z"/>
<linearGradient id="SVGID_3_" gradientUnits="userSpaceOnUse" x1="53.3799" y1="10.2228" x2="57.1279" y2="10.2228" gradientTransform="matrix(1 0 0 -1 0 51.9291)">
	<stop  offset="0" style="stop-color:#0079E3"/>
	<stop  offset="0.16" style="stop-color:#057DE4"/>
	<stop  offset="0.34" style="stop-color:#1388E7"/>
	<stop  offset="0.54" style="stop-color:#2B9AEC"/>
	<stop  offset="0.74" style="stop-color:#4CB3F4"/>
	<stop  offset="0.96" style="stop-color:#76D4FD"/>
	<stop  offset="1" style="stop-color:#80DBFF"/>
</linearGradient>
<path class="st6" d="M55.2,38.9l-1.8,5.3c1.2,0.4,2.5,0.3,3.7-0.1l0-0.1L55.2,38.9z"/>
<linearGradient id="SVGID_4_" gradientUnits="userSpaceOnUse" x1="58.1635" y1="12.3632" x2="61.1915" y2="12.3632" gradientTransform="matrix(1 0 0 -1 0 51.9291)">
	<stop  offset="0" style="stop-color:#0079E3"/>
	<stop  offset="0.16" style="stop-color:#057DE4"/>
	<stop  offset="0.34" style="stop-color:#1388E7"/>
	<stop  offset="0.54" style="stop-color:#2B9AEC"/>
	<stop  offset="0.74" style="stop-color:#4CB3F4"/>
	<stop  offset="0.96" style="stop-color:#76D4FD"/>
	<stop  offset="1" style="stop-color:#80DBFF"/>
</linearGradient>
<path class="st7" d="M60.5,35.5c0,0.2,0,0.4,0,0.6c0,0.8-0.2,1.5-0.5,2.2l-1.8,5.4C61,42,62,38.4,60.5,35.5z"/>
<linearGradient id="SVGID_5_" gradientUnits="userSpaceOnUse" x1="48.0044" y1="13.5369" x2="62.2075" y2="13.5369" gradientTransform="matrix(1 0 0 -1 0 51.9291)">
	<stop  offset="0" style="stop-color:#0079E3"/>
	<stop  offset="0.16" style="stop-color:#057DE4"/>
	<stop  offset="0.34" style="stop-color:#1388E7"/>
	<stop  offset="0.54" style="stop-color:#2B9AEC"/>
	<stop  offset="0.74" style="stop-color:#4CB3F4"/>
	<stop  offset="0.96" style="stop-color:#76D4FD"/>
	<stop  offset="1" style="stop-color:#80DBFF"/>
</linearGradient>
<path class="st8" d="M55.1,31.3c-3.9,0-7.1,3.2-7.1,7.1s3.2,7.1,7.1,7.1s7.1-3.2,7.1-7.1C62.2,34.5,59,31.3,55.1,31.3z M55.1,45.2
	c-3.7,0-6.8-3-6.8-6.8s3-6.8,6.8-6.8c3.7,0,6.8,3,6.8,6.8c0,0,0,0,0,0C61.9,42.2,58.8,45.2,55.1,45.2z"/>
<linearGradient id="SVGID_6_" gradientUnits="userSpaceOnUse" x1="10.8101" y1="11.9933" x2="14.2425" y2="11.9933" gradientTransform="matrix(1 0 0 -1 0 51.9291)">
	<stop  offset="0" style="stop-color:#F79D1E"/>
	<stop  offset="0.22" style="stop-color:#F89F23"/>
	<stop  offset="0.49" style="stop-color:#F9A431"/>
	<stop  offset="0.77" style="stop-color:#FCAE49"/>
	<stop  offset="1" style="stop-color:#FFB761"/>
</linearGradient>
<path class="st9" d="M10.8,38.4c0,2.3,1.3,4.5,3.4,5.5l-2.9-8C11,36.7,10.8,37.6,10.8,38.4z"/>
<linearGradient id="SVGID_7_" gradientUnits="userSpaceOnUse" x1="11.8063" y1="14.7016" x2="21.0087" y2="14.7016" gradientTransform="matrix(1 0 0 -1 0 51.9291)">
	<stop  offset="0" style="stop-color:#F79D1E"/>
	<stop  offset="0.22" style="stop-color:#F89F23"/>
	<stop  offset="0.49" style="stop-color:#F9A431"/>
	<stop  offset="0.77" style="stop-color:#FCAE49"/>
	<stop  offset="1" style="stop-color:#FFB761"/>
</linearGradient>
<path class="st10" d="M21,38.1c0-0.6-0.2-1.2-0.5-1.7C20.2,36,20,35.5,19.9,35c0-0.6,0.4-1,1-1.1H21c-2.5-2.3-6.3-2.1-8.6,0.4
	c-0.2,0.2-0.4,0.5-0.6,0.7h0.4c0.6,0,1.6-0.1,1.6-0.1c0.1,0,0.2,0.2,0.2,0.3c0,0.1-0.1,0.2-0.2,0.2c0,0-0.3,0-0.7,0.1l2.2,6.6l1.4-4
	l-1-2.6c-0.3,0-0.6-0.1-0.6-0.1c-0.1,0-0.2-0.2-0.2-0.3c0-0.1,0.1-0.2,0.2-0.2c0,0,1,0.1,1.6,0.1s1.6-0.1,1.6-0.1
	c0.1,0,0.2,0.2,0.2,0.3c0,0.1-0.1,0.2-0.2,0.2c0,0-0.3,0-0.7,0.1l2.2,6.5l0.6-2C20.7,39.4,20.9,38.8,21,38.1z"/>
<linearGradient id="SVGID_8_" gradientUnits="userSpaceOnUse" x1="15.1795" y1="10.2229" x2="18.9177" y2="10.2229" gradientTransform="matrix(1 0 0 -1 0 51.9291)">
	<stop  offset="0" style="stop-color:#F79D1E"/>
	<stop  offset="0.22" style="stop-color:#F89F23"/>
	<stop  offset="0.49" style="stop-color:#F9A431"/>
	<stop  offset="0.77" style="stop-color:#FCAE49"/>
	<stop  offset="1" style="stop-color:#FFB761"/>
</linearGradient>
<path class="st11" d="M17,38.9l-1.8,5.3c1.2,0.4,2.5,0.3,3.7-0.1v-0.1L17,38.9z"/>
<linearGradient id="SVGID_9_" gradientUnits="userSpaceOnUse" x1="19.9632" y1="12.3632" x2="22.9917" y2="12.3632" gradientTransform="matrix(1 0 0 -1 0 51.9291)">
	<stop  offset="0" style="stop-color:#F79D1E"/>
	<stop  offset="0.22" style="stop-color:#F89F23"/>
	<stop  offset="0.49" style="stop-color:#F9A431"/>
	<stop  offset="0.77" style="stop-color:#FCAE49"/>
	<stop  offset="1" style="stop-color:#FFB761"/>
</linearGradient>
<path class="st12" d="M22.2,35.5c0,0.2,0,0.4,0,0.6c0,0.8-0.2,1.5-0.5,2.2L20,43.7C22.8,42,23.8,38.4,22.2,35.5z"/>
<linearGradient id="SVGID_10_" gradientUnits="userSpaceOnUse" x1="9.7942" y1="13.5369" x2="23.9973" y2="13.5369" gradientTransform="matrix(1 0 0 -1 0 51.9291)">
	<stop  offset="0" style="stop-color:#F79D1E"/>
	<stop  offset="0.22" style="stop-color:#F89F23"/>
	<stop  offset="0.49" style="stop-color:#F9A431"/>
	<stop  offset="0.77" style="stop-color:#FCAE49"/>
	<stop  offset="1" style="stop-color:#FFB761"/>
</linearGradient>
<path class="st13" d="M16.9,31.3c-3.9,0-7.1,3.2-7.1,7.1s3.2,7.1,7.1,7.1s7.1-3.2,7.1-7.1l0,0C24,34.5,20.8,31.3,16.9,31.3z
	 M16.9,45.2c-3.7,0-6.8-3-6.8-6.8c0-3.7,3-6.8,6.8-6.8c3.7,0,6.8,3,6.8,6.8c0,0,0,0,0,0C23.6,42.2,20.6,45.2,16.9,45.2z"/>
<linearGradient id="SVGID_11_" gradientUnits="userSpaceOnUse" x1="29.9053" y1="36.9769" x2="33.3377" y2="36.9769" gradientTransform="matrix(1 0 0 -1 0 51.9291)">
	<stop  offset="0" style="stop-color:#00B796"/>
	<stop  offset="0.18" style="stop-color:#05BA99"/>
	<stop  offset="0.39" style="stop-color:#13C2A2"/>
	<stop  offset="0.62" style="stop-color:#2BD0B1"/>
	<stop  offset="0.86" style="stop-color:#4CE2C6"/>
	<stop  offset="1" style="stop-color:#62EFD4"/>
</linearGradient>
<path class="st14" d="M29.9,13.5c0,2.3,1.3,4.5,3.4,5.5l-2.9-8C30.1,11.8,29.9,12.6,29.9,13.5z"/>
<linearGradient id="SVGID_12_" gradientUnits="userSpaceOnUse" x1="30.9114" y1="39.6493" x2="40.1138" y2="39.6493" gradientTransform="matrix(1 0 0 -1 0 51.9291)">
	<stop  offset="0" style="stop-color:#00B796"/>
	<stop  offset="0.18" style="stop-color:#05BA99"/>
	<stop  offset="0.39" style="stop-color:#13C2A2"/>
	<stop  offset="0.62" style="stop-color:#2BD0B1"/>
	<stop  offset="0.86" style="stop-color:#4CE2C6"/>
	<stop  offset="1" style="stop-color:#62EFD4"/>
</linearGradient>
<path class="st15" d="M40.1,13.1c0-0.6-0.2-1.2-0.5-1.7c-0.3-0.4-0.5-0.9-0.6-1.4c0-0.6,0.4-1,1-1.1h0.1c-2.5-2.3-6.3-2.1-8.6,0.4
	c-0.2,0.2-0.4,0.5-0.6,0.8h0.4c0.6,0,1.6-0.1,1.6-0.1c0.1,0,0.2,0.2,0.2,0.3c0,0.1-0.1,0.2-0.2,0.2c0,0-0.3,0-0.7,0.1l2.3,6.6
	l1.3-3.9l-1-2.6c-0.3,0-0.6-0.1-0.6-0.1c-0.1,0-0.2-0.2-0.2-0.3c0-0.1,0.1-0.2,0.2-0.2c0,0,1,0.1,1.6,0.1c0.6,0,1.6-0.1,1.6-0.1
	c0.1,0,0.2,0.2,0.2,0.3c0,0.1-0.1,0.2-0.2,0.2c0,0-0.3,0-0.7,0.1l2.2,6.5l0.6-2C39.9,14.5,40,13.8,40.1,13.1z"/>
<linearGradient id="SVGID_13_" gradientUnits="userSpaceOnUse" x1="34.2748" y1="35.1621" x2="38.0228" y2="35.1621" gradientTransform="matrix(1 0 0 -1 0 51.9291)">
	<stop  offset="0" style="stop-color:#00B796"/>
	<stop  offset="0.18" style="stop-color:#05BA99"/>
	<stop  offset="0.39" style="stop-color:#13C2A2"/>
	<stop  offset="0.62" style="stop-color:#2BD0B1"/>
	<stop  offset="0.86" style="stop-color:#4CE2C6"/>
	<stop  offset="1" style="stop-color:#62EFD4"/>
</linearGradient>
<path class="st16" d="M36.1,14l-1.8,5.3c0.6,0.2,1.1,0.2,1.7,0.2c0.7,0,1.3-0.1,2-0.3c0,0,0-0.1,0-0.1L36.1,14z"/>
<linearGradient id="SVGID_14_" gradientUnits="userSpaceOnUse" x1="39.0584" y1="37.3172" x2="42.0978" y2="37.3172" gradientTransform="matrix(1 0 0 -1 0 51.9291)">
	<stop  offset="0" style="stop-color:#00B796"/>
	<stop  offset="0.18" style="stop-color:#05BA99"/>
	<stop  offset="0.39" style="stop-color:#13C2A2"/>
	<stop  offset="0.62" style="stop-color:#2BD0B1"/>
	<stop  offset="0.86" style="stop-color:#4CE2C6"/>
	<stop  offset="1" style="stop-color:#62EFD4"/>
</linearGradient>
<path class="st17" d="M41.3,10.5c0,0.2,0,0.4,0,0.6c0,0.7-0.2,1.5-0.5,2.2l-1.8,5.4C41.9,17.1,42.9,13.4,41.3,10.5L41.3,10.5z"/>
<linearGradient id="SVGID_15_" gradientUnits="userSpaceOnUse" x1="28.8993" y1="38.4712" x2="43.1024" y2="38.4712" gradientTransform="matrix(1 0 0 -1 0 51.9291)">
	<stop  offset="0" style="stop-color:#00B796"/>
	<stop  offset="0.18" style="stop-color:#05BA99"/>
	<stop  offset="0.39" style="stop-color:#13C2A2"/>
	<stop  offset="0.62" style="stop-color:#2BD0B1"/>
	<stop  offset="0.86" style="stop-color:#4CE2C6"/>
	<stop  offset="1" style="stop-color:#62EFD4"/>
</linearGradient>
<path class="st18" d="M36,6.4c-3.9,0-7.1,3.2-7.1,7.1s3.2,7.1,7.1,7.1s7.1-3.2,7.1-7.1C43.1,9.5,39.9,6.4,36,6.4z M36,20.2
	c-3.7,0-6.8-3-6.8-6.8s3-6.8,6.8-6.8c3.7,0,6.8,3,6.8,6.8v0C42.8,17.2,39.7,20.2,36,20.2z"/>
</svg>
